Coordinates
version=1
nRows=11
nColumns=63
inDegrees=yes

Units are S.I. units (second, meters, Newtons, ...)
If the header above contains a line with 'inDegrees', this indicates whether rotational values are in degrees (yes) or radians (no).

endheader
time	pelvis_tilt	pelvis_list	pelvis_rotation	pelvis_tx	pelvis_ty	pelvis_tz	hip_flexion_r	hip_adduction_r	hip_rotation_r	knee_angle_r	knee_angle_r_beta	ankle_angle_r	subtalar_angle_r	mtp_angle_r	hip_flexion_l	hip_adduction_l	hip_rotation_l	knee_angle_l	knee_angle_l_beta	ankle_angle_l	subtalar_angle_l	mtp_angle_l	L5_S1_Flex_Ext	L5_S1_Lat_Bending	L5_S1_axial_rotation	L4_L5_Flex_Ext	L4_L5_Lat_Bending	L4_L5_axial_rotation	L3_L4_Flex_Ext	L3_L4_Lat_Bending	L3_L4_axial_rotation	L2_L3_Flex_Ext	L2_L3_Lat_Bending	L2_L3_axial_rotation	L1_L2_Flex_Ext	L1_L2_Lat_Bending	L1_L2_axial_rotation	L1_T12_Flex_Ext	L1_T12_Lat_Bending	L1_T12_axial_rotation	Abs_r3	Abs_r2	Abs_r1	Abs_t1	Abs_t2	neck_flexion	neck_bending	neck_rotation	arm_flex_r	arm_add_r	arm_rot_r	elbow_flex_r	pro_sup_r	wrist_flex_r	wrist_dev_r	arm_flex_l	arm_add_l	arm_rot_l	elbow_flex_l	pro_sup_l	wrist_flex_l	wrist_dev_l
      3.50000000	      0.26750806	     -3.80170637	     94.24905962	      0.22328717	      1.03428791	      0.05450057	     -6.07837286	     -1.50937895	    -10.80525943	     13.07475385	      0.22819750	     29.49912878	      9.21053412	      0.00000000	     -7.47112921	      3.15306456	      3.18622048	      7.57861225	      0.13227174	     23.17134220	    -16.62760344	      0.00000000	      0.19526962	     -0.23935332	      0.51769541	      0.36263521	     -0.31833992	      0.55005137	      0.32080846	     -0.58196367	      0.55005137	      0.22317365	     -0.58196367	      0.45298348	      0.18132737	     -0.48808929	      0.42062752	      0.11157706	     -0.37075830	      0.38827156	      1.39479136	     -2.70761265	      2.87926655	      0.00000000	      0.00000000	     20.80464397	     -4.62392878	     -9.46365473	      3.36530209	    -19.26610500	     57.03897168	     75.32934701	     86.57800357	     19.24678931	    -11.63035432	      7.32106130	    -21.19684033	     55.53408050	     76.29460815	     87.51330974	     23.83500369	     -6.35294061
      3.51666667	      0.21117955	     -3.71932925	     93.88083889	      0.22375109	      1.03394160	      0.05428729	     -6.12868422	     -1.61633863	    -10.53603443	     13.13258420	      0.22920683	     29.54068333	      9.03477886	      0.00000000	     -7.63681645	      3.27269052	      3.10186493	      7.43389581	      0.12974596	     23.50755673	    -16.65392151	      0.00000000	      0.18721310	     -0.24249259	      0.50828032	      0.34767345	     -0.32251515	      0.54004784	      0.30757240	     -0.58959649	      0.54004784	      0.21396585	     -0.58959649	      0.44474528	      0.17384608	     -0.49449090	      0.41297776	      0.10697356	     -0.37562103	      0.38121024	      1.33724444	     -2.74312472	      2.82690264	      0.00000000	      0.00000000	     20.96364103	     -4.66650509	     -9.00336711	      3.90530099	    -19.22614857	     57.91758825	     75.00572191	     86.28253274	     19.55895802	    -11.96778348	      6.84094386	    -21.32033111	     55.04503463	     76.37473505	     86.89581912	     23.60922471	     -6.80185116
      3.53333333	      0.16373981	     -3.64368526	     93.61455217	      0.22414301	      1.03354500	      0.05408945	     -6.21058372	     -1.67223594	    -10.08134271	     13.13062268	      0.22917260	     29.55796068	      8.66971238	      0.00000000	     -7.78205762	      3.36543626	      3.00018769	      7.29612079	      0.12734133	     23.93052605	    -16.51941263	      0.00000000	      0.18352516	     -0.24746098	      0.49718261	      0.34082457	     -0.32912310	      0.52825652	      0.30151348	     -0.60167663	      0.52825652	      0.20975090	     -0.60167663	      0.43503478	      0.17042146	     -0.50462243	      0.40396087	      0.10486627	     -0.38331706	      0.37288696	      1.31090184	     -2.79932809	      2.76518051	      0.00000000	      0.00000000	     21.05229141	     -4.40056011	     -8.31180336	      4.27596995	    -19.19682880	     58.42756915	     74.61221103	     86.32829278	     19.90909164	    -12.45061583	      6.47394461	    -21.34688416	     54.78278429	     76.19236293	     86.08338258	     23.40312327	     -7.33320468
      3.55000000	      0.13031243	     -3.54707415	     93.50228139	      0.22435230	      1.03314827	      0.05391790	     -6.34773903	     -1.70612979	     -9.93557453	     13.09655840	      0.22857806	     29.55889049	      8.60537587	      0.00000000	     -7.92894039	      3.41402661	      3.01770391	      7.19658148	      0.12560404	     24.24617878	    -16.50568696	      0.00000000	      0.17745674	     -0.25480847	      0.49837018	      0.32955491	     -0.33889527	      0.52951832	      0.29154368	     -0.61954132	      0.52951832	      0.20281531	     -0.61954132	      0.43607391	      0.16478633	     -0.51960544	      0.40492577	      0.10139878	     -0.39469832	      0.37377764	      1.26755575	     -2.88244441	      2.77178545	      0.00000000	      0.00000000	     21.01685262	     -4.12587315	     -7.87507893	      4.33259171	    -19.26679113	     58.41399456	     74.36649573	     86.53143313	     20.22817967	    -12.77502219	      6.29693327	    -21.26951506	     54.78085468	     75.81323560	     85.35725747	     23.44509650	     -7.78811192
      3.56666667	      0.11260150	     -3.48021170	     93.38126816	      0.22477042	      1.03276418	      0.05387289	     -6.43085898	     -1.69411082	     -9.58201693	     13.06959360	      0.22810744	     29.41298614	      8.33507670	      0.00000000	     -8.03642579	      3.43406244	      2.88833288	      7.10489857	      0.12400387	     24.33793298	    -16.54885226	      0.00000000	      0.17442098	     -0.26024391	      0.54665816	      0.32391720	     -0.34612440	      0.58082429	      0.28655623	     -0.63275704	      0.58082429	      0.19934574	     -0.63275704	      0.47832589	      0.16196732	     -0.53068938	      0.44415975	      0.09966415	     -0.40311781	      0.40999362	      1.24587161	     -2.94393114	      3.04034867	      0.00000000	      0.00000000	     20.94805705	     -3.48272301	     -6.97356189	      4.20011400	    -19.37568583	     58.00427253	     74.08297338	     87.11422231	     20.88777808	    -13.37694764	      6.59569139	    -21.22353664	     55.55359123	     75.27376207	     84.51563763	     23.48514175	     -8.39270441
      3.58333333	      0.05364020	     -3.43489620	     93.42093923	      0.22474550	      1.03227311	      0.05377400	     -6.49811252	     -1.74909532	     -9.52613496	     13.09526242	      0.22855545	     29.31231630	      8.33030075	      0.00000000	     -8.08255683	      3.48663854	      2.83772222	      7.10492655	      0.12400436	     24.37862831	    -16.59453741	      0.00000000	      0.17360235	     -0.27280535	      0.54792778	      0.32239693	     -0.36283111	      0.58217326	      0.28521131	     -0.66329892	      0.58217326	      0.19841013	     -0.66329892	      0.47943681	      0.16120715	     -0.55630466	      0.44519132	      0.09919638	     -0.42257548	      0.41094583	      1.24002425	     -3.08602865	      3.04740993	      0.00000000	      0.00000000	     20.88521327	     -3.38296585	     -6.93249513	      4.16945238	    -19.59810631	     57.92836444	     74.03112952	     87.20236126	     20.93957276	    -13.40541045	      6.53573829	    -21.12428906	     55.73271599	     75.02505431	     84.50886433	     23.45511496	     -8.34524262
      3.60000000	      0.05588125	     -3.26527690	     93.24381105	      0.22526019	      1.03216394	      0.05385061	     -6.68416684	     -1.72426878	     -9.16858251	     13.04241274	      0.22763304	     29.04458017	      8.19360646	      0.00000000	     -8.28732260	      3.48795883	      2.55253258	      7.01257727	      0.12239256	     24.19018637	    -16.77294172	      0.00000000	      0.15614100	     -0.27938995	      0.67926966	      0.28996945	     -0.37158863	      0.72172402	      0.25652405	     -0.67930872	      0.72172402	      0.17845355	     -0.67930872	      0.59436096	      0.14499253	     -0.56973198	      0.55190660	      0.08921897	     -0.43277503	      0.50945225	      1.11529953	     -3.16051495	      3.77789409	      0.00000000	      0.00000000	     20.57359741	     -2.50339280	     -6.45024003	      3.74308080	    -19.74328817	     57.04123104	     73.85953706	     87.85190722	     21.47893384	    -13.85807305	      7.50094059	    -20.96767723	     57.29687592	     74.52533479	     84.26525809	     23.64695105	     -8.26580328
      3.61666667	     -0.01133654	     -3.20432050	     93.09427580	      0.22566675	      1.03194032	      0.05413849	     -6.68856779	     -1.79554582	     -8.88281428	     13.11212223	      0.22884970	     28.84815691	      8.04559010	      0.00000000	     -8.34763956	      3.57010196	      2.26556212	      6.95193059	      0.12133408	     24.04301400	    -16.85850523	      0.00000000	      0.15028837	     -0.29426200	      0.77699064	      0.27910053	     -0.39136846	      0.82555255	      0.24690876	     -0.71546863	      0.82555255	      0.17176458	     -0.71546863	      0.67986681	      0.13955778	     -0.60005907	      0.63130489	      0.08587478	     -0.45581184	      0.58274298	      1.07349481	     -3.32875062	      4.32138884	      0.00000000	      0.00000000	     20.67464622	     -2.49532056	     -6.63057109	      3.42260572	    -19.78353020	     56.32794173	     73.65218310	     88.10940771	     21.95294349	    -14.13324549	      8.19775017	    -20.81147871	     58.46053123	     74.26253469	     84.21220136	     23.60638819	     -7.98788557
      3.63333333	     -0.04055808	     -3.14011270	     92.85808921	      0.22619107	      1.03180404	      0.05444606	     -6.68247074	     -1.75996716	     -7.86358658	     13.13570426	      0.22926129	     28.54320637	      6.95496119	      0.00000000	     -8.41437488	      3.62559670	      1.91060630	      6.87677956	      0.12002245	     24.07871415	    -16.78821568	      0.00000000	      0.14982412	     -0.30760236	      0.88667827	      0.27823837	     -0.40911114	      0.94209567	      0.24614604	     -0.74790438	      0.94209567	      0.17123398	     -0.74790438	      0.77584349	      0.13912668	     -0.62726273	      0.72042610	      0.08560950	     -0.47647606	      0.66500871	      1.07017869	     -3.47965941	      4.93143856	      0.00000000	      0.00000000	     20.67117568	     -2.87040725	     -7.59019209	      3.03491618	    -19.68617088	     55.48878390	     73.35044692	     88.11947713	     22.49831987	    -14.33124811	      8.81982381	    -20.62784219	     59.51567578	     74.13371357	     84.07184225	     23.34429783	     -7.45689420
      3.65000000	     -0.03127916	     -3.07687080	     92.65959373	      0.22651866	      1.03171643	      0.05472074	     -6.68300973	     -1.77580683	     -7.69208727	     13.17648811	      0.22997310	     28.48916053	      6.88850612	      0.00000000	     -8.46655919	      3.64222425	      1.53469717	      6.83089023	      0.11922153	     24.31384835	    -16.43096188	      0.00000000	      0.15352423	     -0.31340309	      0.96717689	      0.28510985	     -0.41682612	      1.02762544	      0.25222496	     -0.76200828	      1.02762544	      0.17546284	     -0.76200828	      0.84627977	      0.14256260	     -0.63909159	      0.78583122	      0.08772375	     -0.48546139	      0.72538266	      1.09660822	     -3.54527849	      5.37914768	      0.00000000	      0.00000000	     20.67322730	     -3.56362182	     -8.70008766	      2.73306018	    -19.52836887	     54.90471458	     72.92286533	     87.84611652	     22.63286504	    -14.80008358	      9.24957418	    -20.36621500	     60.11819900	     74.03967336	     84.64322480	     23.42924311	     -7.04042986
      3.66666667	     -0.01912243	     -3.01530544	     92.72972466	      0.22653149	      1.03164658	      0.05480474	     -6.74844071	     -1.73529876	     -7.72277191	     13.16966160	      0.22985396	     28.56321992	      6.67729589	      0.00000000	     -8.52853162	      3.62884596	      1.80594219	      6.76667517	      0.11810076	     24.58983571	    -16.32610806	      0.00000000	      0.15919657	     -0.31839289	      0.97401224	      0.29564394	     -0.42346255	      1.03488800	      0.26154404	     -0.77414048	      1.03488800	      0.18194576	     -0.77414048	      0.85226071	      0.14782993	     -0.64926679	      0.79138494	      0.09096492	     -0.49319059	      0.73050918	      1.13712515	     -3.60172408	      5.41716387	      0.00000000	      0.00000000	     20.72003977	     -4.09486079	     -9.53190125	      2.40452483	    -19.21638207	     54.35768686	     72.36517081	     87.20301686	     22.73974773	    -15.25942721	      9.40207351	    -20.22202111	     60.35128442	     74.25210540	     84.68674900	     23.42026896	     -5.88357566
